<svg width="17" height="14" viewBox="0 0 17 14" fill="none" xmlns="http://www.w3.org/2000/svg">
<path d="M5.69945 13.5C11.7357 13.5 15.0382 8.4978 15.0382 4.16124C15.0382 4.02062 15.0351 3.87687 15.0288 3.73624C15.6713 3.27164 16.2257 2.69617 16.666 2.03687C16.0677 2.30307 15.4324 2.47692 14.782 2.55249C15.4669 2.14194 15.9797 1.49698 16.2254 0.737178C15.5811 1.11904 14.8764 1.38841 14.1416 1.53374C13.6466 1.00771 12.992 0.659411 12.2791 0.542701C11.5663 0.42599 10.8348 0.547367 10.1978 0.888064C9.56088 1.22876 9.05388 1.7698 8.75525 2.42754C8.45661 3.08528 8.38297 3.82308 8.5457 4.52687C7.24101 4.46139 5.96464 4.12247 4.79934 3.53207C3.63403 2.94166 2.60581 2.11296 1.78133 1.09968C1.36228 1.82216 1.23405 2.6771 1.4227 3.49073C1.61135 4.30436 2.10272 5.01563 2.79695 5.47999C2.27577 5.46344 1.766 5.32312 1.30977 5.07062V5.11124C1.3093 5.86943 1.57141 6.60439 2.05156 7.19118C2.5317 7.77797 3.20023 8.18037 3.94352 8.32999C3.46072 8.46209 2.954 8.48133 2.46258 8.38624C2.67232 9.03829 3.0804 9.60859 3.62986 10.0176C4.17933 10.4265 4.84276 10.6537 5.52758 10.6675C4.36497 11.5807 2.9288 12.0761 1.45039 12.0737C1.18821 12.0733 0.926282 12.0573 0.666016 12.0256C2.16792 12.9892 3.91504 13.5009 5.69945 13.5Z" fill="#6D6E76"/>
</svg>
