<?xml version="1.0" standalone="no"?>
<!DOCTYPE svg PUBLIC "-//W3C//DTD SVG 20010904//EN"
 "http://www.w3.org/TR/2001/REC-SVG-20010904/DTD/svg10.dtd">
<svg version="1.0" xmlns="http://www.w3.org/2000/svg"
 width="756.000000pt" height="395.000000pt" viewBox="0 0 756.000000 395.000000"
 preserveAspectRatio="xMidYMid meet">
<metadata>
Created by potrace 1.16, written by Peter Selinger 2001-2019
</metadata>
<g transform="translate(0.000000,395.000000) scale(0.100000,-0.100000)"
fill="#000000" stroke="none">
<path d="M3640 3113 c-41 -5 -123 -30 -164 -50 l-29 -15 52 -18 c64 -21 116
-62 156 -123 16 -25 32 -46 35 -46 3 -1 13 11 22 27 44 74 149 151 208 152
l25 1 -25 14 c-69 39 -201 67 -280 58z"/>
<path d="M3407 2753 c-4 -3 -2 -11 3 -18 15 -18 -17 -57 -41 -50 -15 5 -19 1
-19 -20 0 -37 16 -62 50 -80 44 -23 78 -19 111 14 61 61 24 161 -59 161 -21 0
-42 -3 -45 -7z"/>
<path d="M3869 2758 c0 -2 -2 -14 -3 -26 -3 -24 -21 -42 -43 -42 -16 0 -17
-34 -2 -63 48 -94 179 -62 179 43 0 56 -34 90 -90 90 -22 0 -40 -1 -41 -2z"/>
<path d="M3668 2640 c-9 -6 -28 -35 -42 -66 -39 -85 -83 -134 -143 -160 -49
-22 -53 -26 -53 -56 1 -28 18 -50 113 -149 62 -64 122 -119 133 -123 25 -8 62
21 197 151 111 107 114 126 31 174 -83 47 -140 105 -154 159 -12 40 -41 81
-59 80 -3 0 -14 -5 -23 -10z m125 -285 l28 -21 -66 -58 -67 -59 -54 54 c-30
29 -54 56 -54 59 0 3 24 31 53 61 l52 55 40 -35 c22 -20 53 -45 68 -56z"/>
<path d="M4215 2243 c-10 -65 -20 -122 -22 -126 -3 -4 -20 1 -39 13 -51 29
-53 25 -10 -19 33 -34 37 -43 31 -70 -4 -17 -9 -31 -11 -31 -3 0 -28 12 -57
26 l-52 27 52 -48 c46 -40 52 -50 47 -73 -4 -15 -8 -28 -9 -30 -2 -2 -32 11
-66 28 l-64 32 56 -59 c50 -51 56 -61 47 -80 l-11 -22 -59 30 c-33 17 -62 28
-64 26 -3 -2 20 -27 51 -55 49 -45 55 -54 45 -72 -6 -11 -13 -20 -16 -20 -2 0
-31 14 -64 30 -33 17 -62 30 -64 30 -3 0 20 -23 50 -51 30 -29 54 -55 54 -58
0 -3 -8 -16 -18 -29 l-18 -23 -49 21 -50 21 38 -38 37 -39 -24 -23 -24 -22
-63 31 -64 32 25 -28 c14 -16 33 -36 43 -46 11 -9 16 -21 13 -27 -11 -17 -91
-59 -154 -80 l-61 -21 -68 25 c-71 27 -153 71 -153 83 0 3 19 26 43 50 l42 44
-61 -30 -61 -31 -24 25 -23 24 35 36 34 35 -28 -10 c-16 -6 -37 -15 -47 -21
-15 -8 -22 -5 -39 18 l-20 27 52 54 52 53 -61 -30 c-46 -23 -64 -28 -73 -19
-21 21 -11 40 42 89 58 54 55 59 -18 23 -61 -30 -61 -30 -69 -3 -4 18 6 34 47
76 l52 54 -62 -31 c-52 -26 -62 -28 -67 -15 -12 31 -5 49 32 87 l37 39 -42
-21 c-23 -12 -44 -21 -46 -21 -3 0 -8 16 -11 35 -6 31 -3 38 29 66 42 37 41
47 -3 22 -17 -10 -34 -15 -38 -11 -3 4 -14 57 -22 118 -9 60 -19 110 -23 110
-14 0 -121 -124 -168 -193 -130 -193 -213 -435 -239 -695 -14 -139 3 -136 82
14 31 58 74 131 95 162 41 60 118 142 133 142 5 0 6 -42 2 -92 -11 -169 22
-372 80 -490 30 -62 32 -63 66 -58 19 3 80 5 135 5 81 0 111 -5 157 -23 73
-29 157 -105 193 -175 l29 -54 25 51 c35 70 100 132 179 169 61 29 75 32 167
32 55 0 117 -4 137 -8 l38 -8 29 61 c53 110 74 215 80 415 l6 180 42 -39 c52
-46 119 -147 191 -284 30 -57 59 -101 65 -99 24 8 10 169 -27 322 -43 174
-111 339 -190 458 -32 48 -172 217 -180 217 -2 0 -11 -53 -21 -117z"/>
<path d="M2153 2263 c-24 -8 -43 -18 -43 -22 0 -4 16 -13 35 -20 19 -6 50 -30
69 -52 l34 -41 49 51 c31 32 58 51 72 51 37 0 19 22 -30 36 -57 18 -133 16
-186 -3z"/>
<path d="M4993 2233 c-50 -17 -54 -28 -15 -38 15 -3 50 -29 78 -56 l50 -50 31
39 c18 22 50 48 73 59 l42 20 -50 21 c-60 26 -146 28 -209 5z"/>
<path d="M2217 1943 c-4 -3 -7 -14 -7 -24 0 -26 -46 -76 -96 -105 -24 -14 -44
-32 -44 -40 0 -16 130 -144 161 -158 17 -8 32 3 95 64 82 83 93 113 47 131
-40 15 -62 38 -89 92 -23 44 -48 59 -67 40z"/>
<path d="M5061 1905 c-23 -53 -36 -67 -82 -93 -19 -10 -34 -26 -34 -35 0 -19
142 -167 160 -167 21 0 165 140 165 161 0 11 -16 29 -37 43 -51 32 -82 67 -92
102 -5 21 -14 30 -33 32 -23 3 -29 -3 -47 -43z"/>
<path d="M1865 1734 c-101 -123 -144 -205 -180 -348 -28 -110 -41 -216 -26
-216 5 0 28 34 51 75 45 81 115 175 130 175 6 0 10 -43 10 -103 0 -108 16
-190 50 -256 l19 -39 43 10 c95 22 209 -22 258 -98 l28 -45 24 43 c13 25 39
51 62 64 71 40 177 52 240 28 16 -6 53 77 71 160 7 34 12 100 11 149 -1 66 2
86 12 82 9 -3 12 17 12 84 0 48 3 108 6 132 6 42 4 48 -36 92 -23 26 -46 47
-50 47 -4 0 -10 -20 -13 -45 -6 -57 -10 -61 -44 -46 l-28 13 28 -29 c15 -16
27 -37 27 -46 0 -16 -4 -15 -42 4 l-43 21 38 -39 c20 -21 37 -42 37 -46 0 -12
-30 -8 -63 10 -31 16 -32 16 -17 -3 8 -10 25 -27 38 -37 20 -16 31 -47 17 -47
-3 0 -23 9 -45 20 -57 29 -61 24 -11 -19 59 -51 48 -70 -22 -35 l-52 26 45
-46 c54 -56 46 -74 -20 -45 l-45 20 39 -40 c33 -33 37 -41 23 -47 -9 -3 -36 5
-62 19 -25 14 -45 23 -45 19 0 -3 16 -23 36 -43 l37 -38 -48 -30 c-79 -50
-104 -55 -166 -31 -30 11 -67 31 -84 44 l-30 25 40 41 40 42 -54 -27 c-43 -21
-55 -24 -62 -13 -5 8 3 24 24 46 l32 34 -38 -18 c-29 -14 -40 -15 -49 -6 -9 9
-3 21 27 53 l40 41 -43 -21 c-62 -32 -71 -16 -20 36 l43 45 -44 -22 c-32 -16
-46 -19 -54 -11 -9 9 -2 21 26 46 42 39 41 43 -5 19 -25 -13 -32 -14 -39 -3
-5 9 3 25 24 48 l32 33 -32 -16 c-18 -9 -34 -16 -38 -16 -13 0 -3 36 18 58
l22 25 -23 -12 c-13 -7 -25 -11 -26 -9 -2 2 -7 27 -12 57 l-9 54 -40 -49z"/>
<path d="M4701 1725 l-43 -46 6 -77 c3 -42 5 -103 6 -135 0 -36 4 -56 10 -52
6 4 10 -26 10 -82 0 -99 19 -200 49 -268 19 -43 22 -45 48 -38 40 11 121 9
171 -6 49 -14 103 -58 124 -102 l15 -30 21 35 c48 81 163 128 262 109 l52 -11
20 44 c29 67 48 169 48 267 0 83 1 87 19 77 21 -11 92 -115 132 -192 25 -50
53 -66 45 -25 -3 12 -8 49 -11 82 -15 147 -98 341 -191 444 -54 60 -57 58 -69
-31 -7 -52 -7 -53 -36 -38 -25 14 -25 -2 1 -18 11 -7 20 -22 20 -33 0 -22 -7
-22 -55 -4 -16 7 -15 3 8 -22 42 -45 29 -74 -19 -38 -35 26 -39 16 -6 -18 29
-29 41 -57 27 -57 -3 0 -25 9 -48 21 l-42 21 38 -39 c33 -34 47 -63 32 -63 -3
0 -23 9 -45 20 -55 28 -56 25 -10 -17 36 -31 39 -38 27 -51 -13 -12 -19 -12
-48 3 l-34 17 27 -28 c19 -21 25 -33 18 -44 -8 -12 -16 -11 -57 9 l-48 23 33
-34 32 -34 -30 -23 c-17 -12 -49 -29 -72 -37 -37 -13 -47 -13 -87 1 -25 9 -59
27 -76 40 l-29 24 29 32 30 31 -42 -21 c-36 -18 -43 -19 -53 -5 -11 12 -9 19
11 41 l24 26 -31 -16 c-29 -15 -33 -15 -45 -1 -10 12 -6 21 22 51 l34 35 -33
-17 c-19 -9 -41 -14 -50 -10 -12 4 -8 14 24 46 l39 41 -43 -21 c-36 -19 -43
-19 -48 -6 -4 9 6 25 25 41 38 32 34 41 -7 20 -28 -15 -31 -14 -35 2 -2 9 6
28 17 41 l21 24 -22 -12 c-12 -6 -24 -11 -27 -11 -13 0 -5 44 10 61 15 16 14
17 -4 12 -21 -5 -31 18 -32 67 -1 52 -15 53 -59 5z"/>
<path d="M3170 598 c-75 -39 -100 -126 -55 -195 13 -19 12 -23 -13 -39 -86
-56 -114 -149 -69 -229 49 -87 188 -113 301 -56 l58 29 41 -24 c36 -20 55 -24
127 -23 l85 1 -46 16 c-50 19 -149 79 -149 92 0 4 7 13 15 20 16 13 55 111 55
139 0 24 -19 31 -83 30 l-52 -1 33 -14 c27 -12 32 -19 32 -48 0 -44 -19 -96
-35 -96 -19 0 -208 201 -228 242 -45 94 8 168 99 138 35 -12 64 -51 64 -87 0
-15 2 -16 10 -3 5 8 10 36 10 63 0 42 -3 49 -26 57 -45 18 -126 12 -174 -12z
m163 -475 c-54 -40 -149 -35 -190 9 -47 50 -56 131 -23 186 l21 34 105 -108
c96 -99 104 -110 87 -121z"/>
<path d="M3775 610 c-46 -14 -86 -61 -92 -108 -8 -59 12 -104 69 -158 130
-123 138 -132 138 -172 0 -100 -154 -124 -189 -31 -7 19 -16 43 -21 54 -5 14
-9 2 -15 -44 -10 -88 -1 -96 115 -96 74 0 93 3 117 21 67 50 90 125 59 197
-17 39 -47 70 -124 131 -85 67 -99 105 -58 153 47 54 141 28 162 -45 7 -23 9
-19 14 28 4 30 4 59 -1 64 -11 13 -139 17 -174 6z"/>
<path d="M5472 596 c-6 -13 -52 -127 -103 -252 -50 -126 -99 -237 -107 -247
-8 -9 -29 -21 -46 -26 -23 -7 -6 -9 69 -9 55 1 90 3 77 5 -35 7 -36 24 -5 102
l27 71 87 0 87 0 30 -77 c21 -55 27 -82 20 -90 -8 -10 11 -13 88 -12 77 1 92
3 68 10 -34 10 -57 38 -79 97 -47 126 -184 447 -192 449 -5 2 -15 -7 -21 -21z"/>
<path d="M70 597 l35 -12 3 -244 c2 -254 1 -266 -41 -274 -12 -2 34 -4 103 -5
74 0 112 3 94 7 -54 13 -54 14 -54 147 l0 124 140 0 140 0 0 -124 c0 -128 -3
-138 -45 -149 -11 -2 36 -5 105 -4 69 0 112 2 95 4 -56 9 -55 6 -55 270 l0
244 33 14 c30 13 24 14 -88 14 -106 0 -116 -2 -85 -12 l35 -12 3 -102 3 -103
-141 0 -140 0 0 100 0 101 33 14 c30 13 24 14 -88 14 -106 0 -116 -2 -85 -12z"/>
<path d="M985 534 c-81 -20 -117 -39 -153 -78 -117 -127 -73 -327 84 -386 158
-59 328 13 370 156 34 119 -7 226 -106 276 -54 27 -151 43 -195 32z m119 -58
c55 -32 87 -91 93 -170 13 -154 -70 -247 -189 -216 -120 32 -182 196 -125 332
32 77 138 103 221 54z"/>
<path d="M1384 529 c-2 -3 -6 -26 -9 -50 l-7 -44 20 25 c17 21 31 25 91 28
l71 4 0 -194 c0 -198 -3 -218 -40 -231 -8 -3 35 -5 95 -5 61 0 99 3 85 5 -49
9 -50 13 -50 224 l0 199 50 0 c55 0 100 -16 100 -37 0 -7 5 -13 10 -13 6 0 10
20 10 45 l0 44 -211 3 c-116 2 -213 0 -215 -3z"/>
<path d="M4699 473 c-17 -38 -60 -136 -95 -220 -66 -152 -82 -177 -119 -186
-11 -2 21 -5 70 -5 53 0 80 3 65 7 -30 9 -30 27 -1 95 l21 47 81 -3 81 -3 24
-60 c14 -33 22 -65 20 -72 -4 -10 15 -13 82 -12 71 1 81 2 55 10 -39 11 -41
15 -153 277 -45 105 -86 192 -92 192 -5 0 -22 -30 -39 -67z"/>
<path d="M7087 533 c-4 -3 -7 -101 -7 -218 0 -221 -3 -238 -45 -248 -11 -3 23
-5 75 -4 52 0 85 2 73 4 -39 8 -44 27 -50 180 l-6 148 158 -155 c87 -85 167
-163 177 -173 11 -10 26 -16 34 -13 11 4 14 43 14 215 0 115 3 216 6 225 3 9
15 16 25 16 10 0 19 5 19 10 0 6 -35 10 -86 10 -54 0 -83 -4 -79 -10 3 -5 15
-10 26 -10 30 0 38 -37 38 -186 l1 -138 -178 177 c-98 97 -181 177 -183 177
-3 0 -9 -3 -12 -7z"/>
<path d="M1896 521 c5 -5 18 -11 29 -13 19 -3 20 -11 20 -213 l0 -209 -25 -13
c-21 -11 0 -13 136 -13 159 0 162 0 168 23 9 34 7 67 -4 67 -5 0 -10 -7 -10
-15 0 -27 -47 -48 -95 -43 -69 8 -75 18 -75 115 l0 84 62 -3 c53 -3 64 -6 74
-25 15 -31 24 -18 24 31 l0 41 -80 -3 -80 -4 0 81 0 81 56 0 c61 0 94 -13 94
-36 0 -8 5 -12 10 -9 6 3 10 24 10 46 l0 39 -162 0 c-97 0 -158 -4 -152 -9z"/>
<path d="M2340 520 c0 -5 11 -10 24 -10 13 0 26 -7 29 -15 8 -19 8 -361 1
-391 -3 -13 -18 -27 -32 -33 -20 -7 21 -10 144 -10 l172 -1 6 31 c9 45 7 69
-4 69 -5 0 -10 -8 -10 -19 0 -33 -29 -46 -96 -45 -34 1 -67 5 -73 8 -7 5 -11
73 -11 207 l0 199 25 0 c14 0 25 5 25 10 0 6 -40 10 -100 10 -60 0 -100 -4
-100 -10z"/>
<path d="M4095 522 c6 -6 19 -12 30 -14 19 -3 20 -11 20 -213 l0 -209 -25 -13
c-22 -11 -10 -13 85 -11 61 0 99 3 85 5 -49 9 -50 12 -50 229 l0 204 31 0 c22
0 41 -10 66 -35 33 -33 35 -39 31 -86 -6 -56 -22 -78 -71 -96 l-32 -11 41 -1
c74 -2 145 65 146 136 1 95 -39 116 -227 121 -92 2 -137 0 -130 -6z"/>
<path d="M5830 521 c0 -5 10 -11 23 -13 l22 -3 0 -210 0 -209 -25 -13 c-21
-11 2 -13 145 -10 l170 2 2 50 3 50 -14 -31 c-12 -26 -21 -32 -57 -37 -24 -4
-60 -3 -79 1 -45 10 -47 22 -49 217 -1 168 3 195 30 195 10 0 21 5 24 10 4 6
-30 10 -94 10 -56 0 -101 -4 -101 -9z"/>
<path d="M6250 521 c0 -5 12 -11 28 -13 l27 -3 3 -190 c1 -104 0 -200 -3 -213
-3 -13 -16 -27 -28 -32 -15 -6 14 -9 88 -9 109 1 115 2 63 13 l-28 6 0 211 0
212 37 -6 c51 -9 84 -44 90 -99 4 -37 1 -49 -22 -76 -15 -17 -41 -36 -58 -41
l-32 -9 38 -1 c86 -2 148 50 155 131 3 46 1 57 -21 80 -13 14 -42 31 -63 37
-48 13 -274 15 -274 2z"/>
<path d="M6720 521 c0 -5 10 -11 23 -13 l22 -3 0 -210 0 -209 -25 -13 c-22
-11 -10 -13 85 -12 109 1 115 2 63 13 l-28 6 0 210 0 210 25 10 c14 5 25 12
25 15 0 3 -43 5 -95 5 -52 0 -95 -4 -95 -9z"/>
</g>
</svg>
